<svg width="1024" height="299" viewBox="0 0 1024 299" fill="none" xmlns="http://www.w3.org/2000/svg">
<path d="M134.187 283.692C208.297 283.692 268.375 223.614 268.375 149.505C268.375 75.395 208.297 15.3173 134.187 15.3173C60.0777 15.3173 0 75.395 0 149.505C0 223.614 60.0777 283.692 134.187 283.692Z" fill="#847577"/>
<path fill-rule="evenodd" clip-rule="evenodd" d="M117.272 102.733C117.108 101.422 134.124 26.4655 134.124 26.4655C134.124 26.4655 151.267 101.422 151.103 102.733C150.996 103.587 143.365 94.5652 143.524 101.72C143.587 104.492 145.883 167.192 146.594 167.02C149.266 166.374 149.055 165.837 178.996 155.575C180.771 154.967 177.007 46.7661 177.007 46.7661C179.015 51.8253 209.988 116.16 210.351 117.299C210.815 118.756 197.027 107.978 195.452 110.051C193.402 112.748 194.149 113.1 195.59 124.772C197.324 138.814 201.2 185.496 202.419 190.916C200.836 188.608 191.684 179.256 187.903 177.869C168.613 170.792 148.778 187.311 148.818 188.376C149.77 213.753 150.7 214.034 149.844 214.632C146.264 217.13 145.695 217.495 145.326 217.732C144.543 218.234 144.705 218.395 142.056 228.903C141.561 230.866 141.349 283.347 141.288 283.354C137.996 283.744 136.903 283.595 134.187 283.692C131.471 283.595 130.379 283.744 127.086 283.354C127.026 283.347 126.813 230.866 126.319 228.903C123.669 218.395 123.832 218.234 123.048 217.732C122.679 217.495 122.11 217.13 118.531 214.632C117.674 214.034 118.605 213.753 119.556 188.376C119.596 187.311 99.762 170.792 80.4711 177.869C76.6909 179.256 67.5383 188.608 65.9548 190.916C67.1738 185.496 71.0505 138.814 72.7843 124.772C74.2255 113.1 74.9718 112.748 72.9226 110.051C71.3477 107.978 57.5592 118.756 58.0235 117.299C58.3863 116.16 89.3597 51.8253 91.3679 46.7661C91.3679 46.7661 87.6031 154.967 89.3785 155.575C119.32 165.837 119.108 166.374 121.78 167.02C122.492 167.192 124.788 104.492 124.85 101.72C125.01 94.5652 117.379 103.587 117.272 102.733ZM202.419 190.916C202.603 191.183 202.685 191.355 202.645 191.411C202.586 191.493 202.51 191.318 202.419 190.916ZM65.9548 190.916C65.8643 191.318 65.7886 191.493 65.7293 191.411C65.6898 191.355 65.7716 191.183 65.9548 190.916Z" fill="white"/>
<path d="M434.59 92.488L481.246 212.872C483.166 217.48 485.214 220.68 487.39 222.472C489.694 224.136 491.806 225.032 493.726 225.16V229C490.398 228.744 486.366 228.616 481.63 228.616C477.022 228.488 472.286 228.424 467.422 228.424C461.79 228.424 456.542 228.488 451.678 228.616C446.814 228.616 442.846 228.744 439.774 229V225.16C446.302 224.904 450.462 223.816 452.254 221.896C454.046 219.848 453.662 215.56 451.102 209.032L417.31 117.832L420.766 113.608L390.046 193.288C387.614 199.688 386.142 204.936 385.63 209.032C385.118 213.128 385.438 216.328 386.59 218.632C387.742 220.936 389.662 222.6 392.35 223.624C395.038 224.52 398.366 225.032 402.334 225.16V229C398.238 228.744 394.27 228.616 390.43 228.616C386.59 228.488 382.75 228.424 378.91 228.424C376.094 228.424 373.406 228.488 370.846 228.616C368.414 228.616 366.238 228.744 364.318 229V225.16C367.134 224.52 369.886 222.856 372.574 220.168C375.39 217.48 378.078 212.808 380.638 206.152L424.606 92.488C426.142 92.616 427.806 92.68 429.598 92.68C431.39 92.68 433.054 92.616 434.59 92.488ZM451.294 173.704V177.544H394.078L395.998 173.704H451.294ZM534.29 127.048C539.666 127.048 544.274 127.816 548.114 129.352C551.954 130.888 554.77 132.232 556.562 133.384C560.914 136.584 563.538 134.536 564.434 127.24H568.658C568.402 130.952 568.21 135.368 568.082 140.488C567.954 145.48 567.89 152.2 567.89 160.648H563.666C563.026 155.912 561.81 151.304 560.018 146.824C558.226 142.344 555.602 138.632 552.146 135.688C548.69 132.616 544.146 131.08 538.514 131.08C534.546 131.08 531.218 132.232 528.53 134.536C525.97 136.84 524.69 140.104 524.69 144.328C524.69 148.168 525.842 151.56 528.146 154.504C530.45 157.32 533.394 160.008 536.978 162.568C540.69 165 544.53 167.688 548.498 170.632C553.106 173.704 557.202 176.84 560.786 180.04C564.37 183.112 567.25 186.568 569.426 190.408C571.602 194.12 572.69 198.536 572.69 203.656C572.69 209.544 571.026 214.6 567.698 218.824C564.498 222.92 560.21 226.12 554.834 228.424C549.586 230.6 543.762 231.688 537.362 231.688C533.906 231.688 530.77 231.368 527.954 230.728C525.138 230.088 522.642 229.256 520.466 228.232C518.802 227.336 517.266 226.504 515.858 225.736C514.578 224.968 513.234 224.328 511.826 223.816C510.546 223.176 509.394 223.432 508.37 224.584C507.474 225.736 506.77 227.656 506.258 230.344H502.034C502.29 226.248 502.482 221.256 502.61 215.368C502.738 209.48 502.802 201.672 502.802 191.944H507.026C507.922 198.984 509.266 205.192 511.058 210.568C512.978 215.816 515.73 219.976 519.314 223.048C522.898 225.992 527.506 227.464 533.138 227.464C535.57 227.464 537.874 226.952 540.05 225.928C542.354 224.904 544.21 223.304 545.618 221.128C547.154 218.952 547.922 216.008 547.922 212.296C547.922 206.664 546.002 201.992 542.162 198.28C538.322 194.568 533.522 190.6 527.762 186.376C523.41 183.176 519.314 180.04 515.474 176.968C511.762 173.896 508.69 170.44 506.258 166.6C503.954 162.76 502.802 158.216 502.802 152.968C502.802 147.208 504.274 142.472 507.218 138.76C510.162 134.92 514.002 132.04 518.738 130.12C523.602 128.072 528.786 127.048 534.29 127.048ZM621.656 98.248V129.928H646.232V133.768H621.656V210.184C621.656 214.792 622.488 218.056 624.152 219.976C625.816 221.896 628.184 222.856 631.256 222.856C634.2 222.856 636.888 221.768 639.32 219.592C641.752 217.288 643.928 213.512 645.848 208.264L649.304 209.8C647.384 216.072 644.376 221.32 640.28 225.544C636.312 229.64 630.68 231.688 623.384 231.688C619.032 231.688 615.32 231.112 612.248 229.96C609.304 228.936 606.744 227.4 604.568 225.352C601.752 222.408 599.832 218.888 598.808 214.792C597.912 210.696 597.464 205.256 597.464 198.472V133.768H580.568V129.928H597.464V103.24C602.072 103.112 606.36 102.664 610.328 101.896C614.296 101.128 618.072 99.912 621.656 98.248ZM716.612 127.048C720.58 127.048 723.844 127.88 726.404 129.544C729.092 131.208 731.076 133.32 732.356 135.88C733.636 138.44 734.276 141.128 734.276 143.944C734.276 148.168 732.996 151.688 730.436 154.504C728.004 157.32 724.74 158.728 720.644 158.728C716.804 158.728 713.668 157.704 711.236 155.656C708.804 153.608 707.588 150.792 707.588 147.208C707.588 144.008 708.356 141.32 709.892 139.144C711.556 136.968 713.412 135.24 715.46 133.96C714.052 133.192 712.452 132.936 710.66 133.192C707.588 133.448 704.772 134.536 702.212 136.456C699.652 138.376 697.476 140.744 695.684 143.56C693.892 146.376 692.484 149.384 691.46 152.584C690.564 155.784 690.116 158.856 690.116 161.8V209.224C690.116 215.496 691.716 219.72 694.916 221.896C698.116 223.944 702.788 224.968 708.932 224.968V229C705.988 228.872 701.7 228.744 696.068 228.616C690.564 228.36 684.804 228.232 678.788 228.232C673.796 228.232 668.804 228.36 663.812 228.616C658.948 228.744 655.3 228.872 652.868 229V224.968C657.604 224.968 660.932 224.008 662.852 222.088C664.9 220.168 665.924 216.52 665.924 211.144V150.664C665.924 144.904 664.964 140.68 663.044 137.992C661.252 135.176 657.86 133.768 652.868 133.768V129.736C656.964 130.12 660.932 130.312 664.772 130.312C669.508 130.312 673.988 130.12 678.212 129.736C682.564 129.224 686.532 128.52 690.116 127.624V147.592C691.652 144.008 693.636 140.68 696.068 137.608C698.628 134.536 701.636 132.04 705.092 130.12C708.676 128.072 712.516 127.048 716.612 127.048ZM767.681 230.344C762.177 230.344 757.505 229.32 753.665 227.272C749.825 225.096 746.945 222.216 745.025 218.632C743.105 214.92 742.145 210.824 742.145 206.344C742.145 200.84 743.425 196.36 745.985 192.904C748.545 189.32 751.809 186.504 755.777 184.456C759.873 182.28 764.161 180.488 768.641 179.08C773.121 177.544 777.345 176.136 781.313 174.856C785.281 173.448 788.545 171.848 791.105 170.056C793.665 168.264 794.945 165.896 794.945 162.952V148.936C794.945 144.84 794.305 141.512 793.025 138.952C791.873 136.264 790.081 134.28 787.649 133C785.345 131.592 782.401 130.888 778.817 130.888C776.129 130.888 773.313 131.272 770.369 132.04C767.425 132.808 764.993 134.28 763.073 136.456C766.401 137.352 768.961 139.016 770.753 141.448C772.673 143.88 773.633 146.824 773.633 150.28C773.633 154.248 772.289 157.384 769.601 159.688C767.041 161.864 763.777 162.952 759.809 162.952C755.585 162.952 752.385 161.608 750.209 158.92C748.033 156.232 746.945 153.096 746.945 149.512C746.945 145.928 747.841 142.984 749.633 140.68C751.425 138.248 753.921 136.072 757.121 134.152C760.321 131.976 764.417 130.248 769.409 128.968C774.401 127.688 779.841 127.048 785.729 127.048C791.361 127.048 796.353 127.688 800.705 128.968C805.057 130.12 808.769 132.232 811.841 135.304C814.913 138.248 816.897 141.896 817.793 146.248C818.689 150.6 819.137 155.912 819.137 162.184V214.792C819.137 217.992 819.521 220.296 820.289 221.704C821.057 222.984 822.273 223.624 823.937 223.624C825.217 223.624 826.433 223.304 827.585 222.664C828.737 222.024 830.017 221.128 831.425 219.976L833.537 223.24C830.721 225.416 827.777 227.144 824.705 228.424C821.633 229.704 817.921 230.344 813.569 230.344C809.089 230.344 805.505 229.704 802.817 228.424C800.257 227.144 798.337 225.288 797.057 222.856C795.905 220.424 795.265 217.544 795.137 214.216C792.065 219.336 788.289 223.304 783.809 226.12C779.329 228.936 773.953 230.344 767.681 230.344ZM779.201 219.592C782.273 219.592 785.089 218.76 787.649 217.096C790.337 215.432 792.769 212.936 794.945 209.608V170.824C793.665 172.744 791.809 174.472 789.377 176.008C787.073 177.544 784.577 179.08 781.889 180.616C779.201 182.152 776.641 183.944 774.209 185.992C771.905 187.912 769.921 190.344 768.257 193.288C766.721 196.104 765.953 199.752 765.953 204.232C765.953 209.224 767.169 213.064 769.601 215.752C772.033 218.312 775.233 219.592 779.201 219.592ZM979.417 228.808L982.489 229.96C981.337 236.36 979.673 241.864 977.497 246.472C975.449 251.08 972.825 254.664 969.625 257.224C967.065 259.4 963.673 261.256 959.449 262.792C955.225 264.328 950.233 265.096 944.473 265.096C937.561 265.096 930.777 264.008 924.121 261.832C917.593 259.656 910.873 256.968 903.961 253.768C897.177 250.568 889.881 247.56 882.073 244.744C881.177 244.488 880.281 244.232 879.385 243.976C878.617 243.72 877.913 243.528 877.273 243.4C874.841 244.552 872.217 245.448 869.401 246.088C866.585 246.728 863.897 247.048 861.337 247.048C858.777 247.048 856.665 246.664 855.001 245.896C853.337 245.128 852.505 243.976 852.505 242.44C852.505 239.24 855.961 237.64 862.873 237.64C867.353 237.64 872.153 238.408 877.273 239.944C882.009 238.664 886.041 237.192 889.369 235.528C892.825 233.992 896.345 232.52 899.929 231.112C903.641 229.704 907.993 228.808 912.985 228.424L913.177 231.496C909.337 231.88 905.945 232.584 903.001 233.608C900.057 234.76 897.113 235.976 894.169 237.256C891.353 238.536 887.961 239.752 883.993 240.904C892.313 241.8 900.313 242.696 907.993 243.592C915.801 244.488 923.033 245.128 929.689 245.512C936.473 246.024 942.553 246.088 947.929 245.704C956.249 245.064 962.841 243.464 967.705 240.904C972.569 238.344 976.473 234.312 979.417 228.808ZM908.185 90.376C921.241 90.376 932.697 93.128 942.553 98.632C952.409 104.136 960.025 112.072 965.401 122.44C970.905 132.68 973.657 145.16 973.657 159.88C973.657 174.216 970.841 186.76 965.209 197.512C959.705 208.264 951.961 216.648 941.977 222.664C932.121 228.68 920.793 231.688 907.993 231.688C894.937 231.688 883.481 228.936 873.625 223.432C863.769 217.928 856.089 209.992 850.585 199.624C845.209 189.256 842.521 176.776 842.521 162.184C842.521 147.848 845.337 135.304 850.969 124.552C856.601 113.8 864.345 105.416 874.201 99.4C884.057 93.384 895.385 90.376 908.185 90.376ZM907.417 93.832C899.865 93.832 893.273 96.712 887.641 102.472C882.137 108.232 877.849 116.168 874.777 126.28C871.705 136.392 870.169 148.104 870.169 161.416C870.169 174.984 871.897 186.824 875.353 196.936C878.809 206.92 883.481 214.664 889.369 220.168C895.257 225.544 901.721 228.232 908.761 228.232C916.313 228.232 922.841 225.352 928.345 219.592C933.977 213.832 938.329 205.896 941.401 195.784C944.473 185.544 946.009 173.832 946.009 160.648C946.009 146.952 944.281 135.112 940.825 125.128C937.369 115.144 932.697 107.464 926.809 102.088C921.049 96.584 914.585 93.832 907.417 93.832Z" fill="#847577"/>
</svg>
